297  3  0  0
   0    0  -2.5  -1
   1    1.275968074798584  -3.1180229187011719  -0.85065418481826782
   2    -0.48736667633056641  -3.4999904632568359  -0.85065442323684692
   3    2.1708219051361084  -3.5514507293701172  -0.44721952080726624
   4    2.5519435405731201  -2.5  -0.52573591470718384
   5    -1.5771893262863159  -2.5  -0.85065168142318726
   6    -0.48736667633056641  -1.5000095367431641  -0.85065442323684692
   7    1.275968074798584  -1.8819772005081177  -0.85065418481826782
   8    2.8531734943389893  -3.1180253028869629  0
   9    -0.82916402816772461  -4.201298713684082  -0.4472198486328125
  10    0.78860646486282349  -4.1180233955383301  -0.52573764324188232
  11    0  -4.5  0
  12    -2.6832785606384277  -2.5  -0.44721561670303345
  13    -2.064568042755127  -3.4999938011169434  -0.52573621273040771
  14    -2.8531734943389893  -3.1180253028869629  0
  15    -0.82916402816772461  -0.79870152473449707  -0.4472198486328125
  16    -2.064568042755127  -1.5000061988830566  -0.52573621273040771
  17    -1.7633568048477173  -0.88196659088134766  0
  18    2.1708219051361084  -1.4485493898391724  -0.44721952080726624
  19    0.78860646486282349  -0.88197672367095947  -0.52573764324188232
  20    1.7633568048477173  -0.88196659088134766  0
  21    1.7633568048477173  -4.1180334091186523  0
  22    -1.7633568048477173  -4.1180334091186523  0
  23    -2.8531734943389893  -1.8819746971130371  0
  24    0  -0.50000011920928955  0
  25    2.8531734943389893  -1.8819746971130371  0
  26    0.82916402816772461  -4.201298713684082  0.4472198486328125
  27    2.064568042755127  -3.4999938011169434  0.52573621273040771
  28    0.48736667633056641  -3.4999904632568359  0.85065436363220215
  29    -2.1708219051361084  -3.5514507293701172  0.44721952080726624
  30    -0.78860646486282349  -4.1180233955383301  0.52573764324188232
  31    -1.275968074798584  -3.1180229187011719  0.85065418481826782
  32    -2.1708219051361084  -1.4485493898391724  0.44721952080726624
  33    -2.5519435405731201  -2.5  0.52573591470718384
  34    -1.275968074798584  -1.8819772005081177  0.85065418481826782
  35    0.82916402816772461  -0.79870152473449707  0.4472198486328125
  36    -0.78860646486282349  -0.88197672367095947  0.52573764324188232
  37    0.48736667633056641  -1.5000095367431641  0.85065436363220215
  38    2.6832785606384277  -2.5  0.44721561670303345
  39    2.064568042755127  -1.5000061988830566  0.52573621273040771
  40    1.5771893262863159  -2.5  0.85065168142318726
  41    0  -2.5  1
  42    0.58915674686431885  -0.38878583908081055  0.41105601191520691
  43    0.58915680646896362  -0.77757167816162109  0.41105601191520691
  44    0.014618785120546818  -0.57059776782989502  0.10117186605930328
  45    0.014618790708482265  -0.28529882431030273  0.069857224822044373
  46    0  2.5  -1
  47    1.275968074798584  1.8819770812988281  -0.85065418481826782
  48    -0.48736667633056641  1.5000095367431641  -0.85065442323684692
  49    2.1708219051361084  1.4485492706298828  -0.44721952080726624
  50    2.5519435405731201  2.5  -0.52573591470718384
  51    -1.5771893262863159  2.5  -0.85065168142318726
  52    -0.48736667633056641  3.4999904632568359  -0.85065442323684692
  53    1.275968074798584  3.1180229187011719  -0.85065418481826782
  54    2.8531734943389893  1.8819746971130371  0
  55    -0.82916402816772461  0.79870152473449707  -0.4472198486328125
  56    0.78860646486282349  0.88197660446166992  -0.52573764324188232
  57    0  0.5  0
  58    -2.6832785606384277  2.5  -0.44721561670303345
  59    -2.064568042755127  1.5000061988830566  -0.52573621273040771
  60    -2.8531734943389893  1.8819746971130371  0
  61    -0.82916402816772461  4.201298713684082  -0.4472198486328125
  62    -2.064568042755127  3.4999938011169434  -0.52573621273040771
  63    -1.7633568048477173  4.1180334091186523  0
  64    2.1708219051361084  3.5514507293701172  -0.44721952080726624
  65    0.78860646486282349  4.1180233955383301  -0.52573764324188232
  66    1.7633568048477173  4.1180334091186523  0
  67    1.7633568048477173  0.88196659088134766  0
  68    -1.7633568048477173  0.88196659088134766  0
  69    -2.8531734943389893  3.1180253028869629  0
  70    0  4.5  0
  71    2.8531734943389893  3.1180253028869629  0
  72    0.82916402816772461  0.79870152473449707  0.4472198486328125
  73    2.064568042755127  1.5000061988830566  0.52573621273040771
  74    0.48736667633056641  1.5000095367431641  0.85065436363220215
  75    -2.1708219051361084  1.4485492706298828  0.44721952080726624
  76    -0.78860646486282349  0.88197660446166992  0.52573764324188232
  77    -1.275968074798584  1.8819770812988281  0.85065418481826782
  78    -2.1708219051361084  3.5514507293701172  0.44721952080726624
  79    -2.5519435405731201  2.5  0.52573591470718384
  80    -1.275968074798584  3.1180229187011719  0.85065418481826782
  81    0.82916402816772461  4.201298713684082  0.4472198486328125
  82    -0.78860646486282349  4.1180233955383301  0.52573764324188232
  83    0.48736667633056641  3.4999904632568359  0.85065436363220215
  84    2.6832785606384277  2.5  0.44721561670303345
  85    2.064568042755127  3.4999938011169434  0.52573621273040771
  86    1.5771893262863159  2.5  0.85065168142318726
  87    0  2.5  1
  88    -0.53181636333465576  -0.41763710975646973  0.46546196937561035
  89    -0.53181636333465576  -0.8352741003036499  0.46546196937561035
  90    0.58915674686431885  0.77757167816162109  0.41105601191520691
  91    0.014618808403611183  0.57059764862060547  0.10117187350988388
  92    -0.53181642293930054  0.83527398109436035  0.46546196937561035
  93    0.014618801884353161  0.28529882431030273  0.069857224822044373
  94    0.58915674686431885  0.38878583908081055  0.41105601191520691
  95    0.58915674686431885  0  0.41105601191520691
  96    0.014618796296417713  0  0.069857224822044373
  97    -0.53181642293930054  0.41763687133789062  0.46546196937561035
  98    -0.53181636333465576  0  0.46546196937561035
  99    -4.5773715972900391  0  0.49579358100891113
 100    -4.5773715972900391  -0.41763710975646973  0.49579358100891113
 101    -4.0846014022827148  -0.16778898239135742  0.19702586531639099
 102    -4.5237054824829102  -0.27413320541381836  0.44434431195259094
 103    -0.3652803897857666  -0.32359123229980469  0.40436610579490662
 104    -0.0088255628943443298  -0.21724700927734375  0.1738736629486084
 105    -4.0309362411499023  0.28529882431030273  0.13150346279144287
 106    -4.5773715972900391  0.41763687133789062  0.49579358100891113
 107    -4.0309362411499023  0  0.13150346279144287
 108    -4.0309362411499023  -0.28529882431030273  0.13150346279144287
 109    -4.0846014022827148  0  0.21960641443729401
 110    -4.0846014022827148  0.15903925895690918  0.18986110389232635
 111    -4.5237054824829102  0.26538324356079102  0.44354155659675598
 112    -4.5237054824829102  0  0.42786937952041626
 113    0.40010449290275574  0  0.37612897157669067
 114    0.40010449290275574  0.32359099388122559  0.37612897157669067
 115    0.066792957484722137  0.21724700927734375  0.17920559644699097
 116    0.066792957484722137  0  0.14165206253528595
 117    0.066792957484722137  -0.21724700927734375  0.17340683937072754
 118    0.40010449290275574  -0.32359123229980469  0.37612897157669067
 119    0.028983697295188904  -0.21724700927734375  0.17364025115966797
 120    -0.036591172218322754  0.21724700927734375  0.17984381318092346
 121    0.015100892633199692  0.21724700927734375  0.17952468991279602
 122    -0.2832302451133728  0.32359099388122559  0.40326806902885437
 123    0.082945704460144043  -0.32359123229980469  0.39836770296096802
 124    0.12397076189517975  0.32359099388122559  0.39781868457794189
 125    0.58904075622558594  1.9520130157470703  0.16668303310871124
 126    0.64073276519775391  1.9520130157470703  0.166363924741745
 127    0.74202060699462891  2.0869808197021484  0.17106470465660095
 128    0.69032853841781616  2.0869808197021484  0.1713838130235672
 129    0.40008026361465454  1.29353928565979  0.37420305609703064
 130    0.066768743097782135  1.1871953010559082  0.17727968096733093
 131    -0.036615379154682159  1.1871953010559082  0.17791789770126343
 132    -0.28325444459915161  1.29353928565979  0.40134215354919434
 133    0.015076680108904839  1.1871953010559082  0.17759877443313599
 134    0.12394653260707855  1.29353928565979  0.39589273929595947
 135    1.9204301834106445  -2.1726698875427246  0.39458560943603516
 136    1.8146198987960815  -2.0677206516265869  0.39373943209648132
 137    1.9647806882858276  -2.0292134284973145  0.39275512099266052
 138    2.0705909729003906  -2.1341629028320312  0.39360129833221436
 139    -0.36531466245651245  -1.3281828165054321  0.40169146656990051
 140    -0.008859856054186821  -1.2218385934829712  0.17119902372360229
 141    0.4000701904296875  -1.3281828165054321  0.37345433235168457
 142    0.082911416888237  -1.3281828165054321  0.39569306373596191
 143    0.066758662462234497  -1.2218385934829712  0.17073220014572144
 144    0.028949402272701263  -1.2218385934829712  0.17096561193466187
 145    -0.88719689846038818  1.839348316192627  0.12867060303688049
 146    -0.83550477027893066  1.839348316192627  0.12835147976875305
 147    -0.98560738563537598  1.9544339179992676  0.12628787755966187
 148    -1.0372993946075439  1.9544339179992676  0.12660700082778931
 149    -0.7991943359375  -2.1085729598999023  0.12496049702167511
 150    -0.83700358867645264  -2.1085729598999023  0.12519390881061554
 151    -0.92901957035064697  -2.2070989608764648  0.12361054122447968
 152    -0.89121025800704956  -2.2070989608764648  0.12337712943553925
 153    0.79919838905334473  2.1933250427246094  0.4272313117980957
 154    1.2063994407653809  2.1933250427246094  0.42178189754486084
 155    1.5930544137954712  2.2341470718383789  0.43533366918563843
 156    1.7557021379470825  2.2927436828613281  0.4414178729057312
 157    2.3408780097961426  1.9089298248291016  0.44028151035308838
 158    2.1782302856445312  1.8503332138061523  0.43419730663299561
 159    1.1051117181777954  2.0583572387695312  0.41708111763000488
 160    0.6979106068611145  2.0583572387695312  0.42253053188323975
 161    -0.012621492147445679  2.3748250007629395  0.14747327566146851
 162    0.096248388290405273  2.4811692237854004  0.40332075953483582
 163    -0.42742046713829041  2.2141051292419434  0.37821102142333984
 164    -0.53629034757614136  2.1077609062194824  0.12236353754997253
 165    -1.2839386463165283  2.0607776641845703  0.38758477568626404
 166    -0.87673759460449219  2.0607776641845703  0.38213536143302917
 167    -0.72663497924804688  1.9456920623779297  0.38419896364212036
 168    -1.133836030960083  1.9456920623779297  0.38964837789535522
 169    -1.8967334032058716  2.2011628150939941  0.39186528325080872
 170    -2.0499320030212402  2.2362589836120605  0.39293542504310608
 171    -1.9859731197357178  2.5170927047729492  0.33894556760787964
 172    -1.8327745199203491  2.4819965362548828  0.33787542581558228
 173    -0.67233693599700928  2.4589266777038574  0.13220743834972382
 174    -0.52223432064056396  2.3438410758972168  0.134271040558815
 175    -0.43895986676216125  2.4779467582702637  0.13584458827972412
 176    -0.58906245231628418  2.5930323600769043  0.13378098607063293
 177    0.088666319847106934  2.5097928047180176  0.15217405557632446
 178    0.19753620028495789  2.6161370277404785  0.40802153944969177
 179    0.29380214214324951  2.5484871864318848  0.41109511256217957
 180    0.19251434504985809  2.4135193824768066  0.40639433264732361
 181    0.18493227660655975  2.4421429634094238  0.15524761378765106
 182    0.43930426239967346  3.6293468475341797  0.4203399121761322
 183    0.33043438196182251  3.5230026245117188  0.1644924134016037
 184    0.083644464612007141  2.3071751594543457  0.1505468338727951
 185    1.291323184967041  2.1863994598388672  0.1907007098197937
 186    1.856989860534668  2.4277114868164062  0.44611865282058716
 187    1.392611026763916  2.3213672637939453  0.19540148973464966
 188    1.6943423748016357  2.369114875793457  0.44003444910049438
 189    1.2299634218215942  2.2627706527709961  0.18931728601455688
 190    1.1286755800247192  2.127802848815918  0.18461650609970093
 191    1.3961198329925537  3.3707427978515625  0.43337559700012207
 192    1.5587673187255859  3.4293394088745117  0.43945980072021484
 193    -0.33009007573127747  2.5842905044555664  0.39169210195541382
 194    0.2092919647693634  3.3493161201477051  0.41597521305084229
 195    0.10042219609022141  3.2429723739624023  0.16012765467166901
 196    -0.41336452960968018  2.4501848220825195  0.39011853933334351
 197    -0.56346714496612549  2.5652704238891602  0.38805490732192993
 198    -0.48019266128540039  2.699376106262207  0.38962846994400024
 199    -1.2448799610137939  2.7155022621154785  0.10634121298789978
 200    -1.1360101699829102  2.8218460083007812  0.36218869686126709
 201    -1.8998293876647949  2.1211733818054199  0.39499902725219727
 202    -1.6531902551651001  2.0148296356201172  0.13402125239372253
 203    -1.803292989730835  2.1299152374267578  0.13195765018463135
 204    -1.9793198108673096  1.7721428871154785  0.46209961175918579
 205    -1.7326807975769043  1.6657991409301758  0.20112185180187225
 206    -1.4999916553497314  1.9797334671020508  0.13295112550258636
 207    -1.6500942707061768  2.0948190689086914  0.13088752329349518
 208    -1.7466306686401367  2.0860772132873535  0.3939288854598999
 209    -1.5861353874206543  2.3756527900695801  0.076897650957107544
 210    -1.7393341064453125  2.4107489585876465  0.077967777848243713
 211    -1.8261212110519409  1.7370467185974121  0.46102946996688843
 212    -1.5794820785522461  1.6307029724121094  0.20005172491073608
 213    -1.1616055965423584  2.8496079444885254  0.1079147607088089
 214    -1.0527358055114746  2.9559516906738281  0.3637622594833374
 215    0.059189401566982269  3.4644017219543457  0.41391158103942871
 216    -0.04968038946390152  3.358057975769043  0.15806405246257782
 217    -0.33115452527999878  2.1464552879333496  0.38128459453582764
 218    -0.44002437591552734  2.0401110649108887  0.12543708086013794
 219    0.34303832054138184  3.6969966888427734  0.41726633906364441
 220    0.23416842520236969  3.5906524658203125  0.1614188551902771
 221    0.93174093961715698  3.2643985748291016  0.18265843391418457
 222    1.0943887233734131  3.3229951858520508  0.18874263763427734
 223    1.7138514518737793  1.7439889907836914  0.18348014354705811
 224    1.8764991760253906  1.8025856018066406  0.18956434726715088
 225    -1.285474419593811  -2.3134431838989258  0.38585776090621948
 226    -0.83724832534790039  -2.3134431838989258  0.37985935807228088
 227    -1.8256969451904297  -2.3778557777404785  0.39927443861961365
 228    -1.9177126884460449  -2.476381778717041  0.39769107103347778
 229    -2.0292842388153076  -2.5051355361938477  0.39977931976318359
 230    -1.9372683763504028  -2.4066095352172852  0.40136265754699707
 231    -0.43109977245330811  -2.923431396484375  0.37918937206268311
 232    -0.33908385038375854  -2.8249053955078125  0.38077276945114136
 233    -0.2729666531085968  -2.9242057800292969  0.38066369295120239
 234    -0.36498260498046875  -3.0227317810058594  0.37908029556274414
 235    -1.1934584379196167  -2.2149171829223633  0.38744112849235535
 236    -0.74523234367370605  -2.2149171829223633  0.38144272565841675
 237    0.99086105823516846  -2.1759228706359863  0.14690330624580383
 238    1.0448230504989624  -2.2822670936584473  0.40338551998138428
 239    1.4930490255355835  -2.2822670936584473  0.39738708734512329
 240    1.0286703109741211  -2.1759228706359863  0.1466698944568634
 241    0.92285996675491333  -2.0709733963012695  0.14582371711730957
 242    0.88505077362060547  -2.0709733963012695  0.14605712890625
 243    0.93901276588439941  -2.1773176193237305  0.40253934264183044
 244    1.3872387409210205  -2.1773176193237305  0.39654091000556946
 245    0.81281787157058716  -2.8128197193145752  0.14636656641960144
 246    0.70700758695602417  -2.7078704833984375  0.14552038908004761
 247    0.67309463024139404  -2.8291842937469482  0.14541815221309662
 248    0.77890491485595703  -2.9341335296630859  0.14626432955265045
 249    1.5004019737243652  -1.9228692054748535  0.14203792810440063
 250    1.6062122583389282  -2.0278186798095703  0.14288410544395447
 251    1.35024094581604  -1.961376428604126  0.14302223920822144
 252    1.4560513496398926  -2.0663256645202637  0.14386841654777527
 253    1.4865278005599976  -2.6377434730529785  0.13985460996627808
 254    1.6366887092590332  -2.5992364883422852  0.13887029886245728
 255    2.0080182552337646  -1.5614016056060791  0.38685828447341919
 256    1.5436395406723022  -1.4550573825836182  0.1361411064863205
 257    0.72705662250518799  -2.9355285167694092  0.40190035104751587
 258    0.83286690711975098  -3.0404777526855469  0.4027465283870697
 259    0.76096963882446289  -2.8142147064208984  0.40200257301330566
 260    1.318879246711731  -3.2653810977935791  0.38305121660232544
 261    1.264917254447937  -3.1590368747711182  0.12656901776790619
 262    0.86677992343902588  -2.9191639423370361  0.40284878015518188
 263    -0.32692858576774597  -2.8178615570068359  0.12418144941329956
 264    -0.41894453763961792  -2.9163875579833984  0.1225980818271637
 265    -0.39304578304290771  -2.7185611724853516  0.12429051846265793
 266    -0.48506176471710205  -2.8170871734619141  0.12270715087652206
 267    -0.5825466513633728  -3.7956445217132568  0.36479762196540833
 268    -0.64866381883621216  -3.6963441371917725  0.36490669846534729
 269    0.65021204948425293  -3.2618212699890137  0.40221595764160156
 270    0.71632921695709229  -3.361121654510498  0.4021068811416626
 271    -1.5808135271072388  -2.3002653121948242  0.13911545276641846
 272    -1.6728293895721436  -2.3987913131713867  0.13753208518028259
 273    -1.5612578392028809  -2.3700375556945801  0.13544385135173798
 274    -1.4692420959472656  -2.2715115547180176  0.13702721893787384
 275    -2.09413743019104  -1.7840733528137207  0.43467015027999878
 276    -1.9825658798217773  -1.7553195953369141  0.43258196115493774
 277    -1.5034890174865723  -2.5951201915740967  0.12269163131713867
 278    -1.8599438667297363  -2.7014644145965576  0.38493886590003967
 279    1.9509067535400391  -2.7440876960754395  0.39057180285453796
 280    2.1010675430297852  -2.7055807113647461  0.38958749175071716
 281    1.8578574657440186  -1.599908709526062  0.38784259557723999
 282    1.3934786319732666  -1.4935644865036011  0.1371254175901413
 283    1.3527922630310059  -3.1440672874450684  0.38315343856811523
 284    1.2988302707672119  -3.0377230644226074  0.12667125463485718
 285    -0.7026258111000061  -3.5899999141693115  0.10842449218034744
 286    -0.63650858402252197  -3.6893002986907959  0.10831542313098907
 287    0.59625017642974854  -3.1554770469665527  0.14573371410369873
 288    0.66236734390258789  -3.2547774314880371  0.14562463760375977
 289    -1.615060567855835  -2.6238739490509033  0.12477986514568329
 290    -1.9107911586761475  -3.071657657623291  0.11712879687547684
 291    -1.7992198467254639  -3.0429039001464844  0.11504056304693222
 292    -1.971515417098999  -2.7302181720733643  0.38702711462974548
 293    -2.1556744575500488  -3.1492481231689453  0.37728780508041382
 294    -2.2672460079193115  -3.178001880645752  0.37937605381011963
 295    -1.6261110305786133  -1.6489753723144531  0.17033475637435913
 296    -1.737682580947876  -1.6777291297912598  0.17242297530174255
# Generated by 
