# vtk DataFile Version 2.0
maze3, Created by Gmsh 4.15.0 
ASCII
DATASET UNSTRUCTURED_GRID
POINTS 183 double
1 1 1
-1 1 1
-1 -1 1
1 -1 1
-0.05000007152557373 -1 -0.05000007152557373
0.05000007152557373 -1 -0.05000007152557373
0.05000007152557373 -0.8172024488449097 -0.05000007152557373
-0.05000007152557373 -0.8172024488449097 -0.05000007152557373
-1 -1 -1
-1 1 -1
1 1 -1
1 -1 -1
-0.05000007152557373 -1 0.05000007152557373
0.05000007152557373 -1 0.05000007152557373
0.05000007152557373 -0.8172024488449097 0.05000007152557373
-0.05000007152557373 -0.8172024488449097 0.05000007152557373
-0.05000007152557373 -0.7520119547843933 0.05000007152557373
0.05000007152557373 -0.7520119547843933 0.05000007152557373
0.05000007152557373 -0.7520119547843933 -0.05000007152557373
-0.05000007152557373 -0.7520119547843933 -0.05000007152557373
-0.8601139783859253 -0.7520119547843933 0.05000007152557373
-0.8601139783859253 -0.7520119547843933 -0.05000007152557373
0.8443402051925659 -0.8172024488449097 -0.05000007152557373
0.8443402051925659 -0.7520119547843933 -0.05000007152557373
-0.8601139783859253 -0.8172024488449097 -0.05000007152557373
-0.9311216473579407 -0.7520119547843933 -0.05000007152557373
-0.9311216473579407 -0.8172024488449097 -0.05000007152557373
-0.8601139783859253 -0.8172024488449097 0.05000007152557373
-0.9311216473579407 -0.8172024488449097 0.05000007152557373
-0.9311216473579407 -0.7520119547843933 0.05000007152557373
0.8887506723403931 -0.8172024488449097 -0.05000007152557373
0.8887506723403931 -0.7520119547843933 -0.05000007152557373
0.8443402051925659 -0.7520119547843933 0.05000007152557373
0.8443402051925659 -0.8172024488449097 0.05000007152557373
0.8887506723403931 -0.7520119547843933 0.05000007152557373
0.9559463262557983 -0.7520119547843933 -0.05000007152557373
0.9559463262557983 -0.7520119547843933 0.05000007152557373
0.8887506723403931 -0.734679639339447 0.05000007152557373
0.8887506723403931 -0.734679639339447 -0.05000007152557373
0.8887506723403931 -0.8172024488449097 0.05000007152557373
0.9559463262557983 -0.8172024488449097 -0.05000007152557373
0.9559463262557983 -0.8172024488449097 0.05000007152557373
0.8443402051925659 -0.734679639339447 0.05000007152557373
0.8443402051925659 -0.6790080666542053 0.05000007152557373
0.8887506723403931 -0.6790080666542053 0.05000007152557373
0.8443402051925659 -0.734679639339447 -0.05000007152557373
0.8443402051925659 -0.6790080666542053 -0.05000007152557373
0.8887506723403931 -0.6790080666542053 -0.05000007152557373
0.8887506723403931 -0.663332462310791 -0.05000007152557373
0.8443402051925659 -0.663332462310791 -0.05000007152557373
0.9755750298500061 -0.734679639339447 -0.05000007152557373
0.9755750298500061 -0.6790080666542053 -0.05000007152557373
-0.7324494123458862 -0.734679639339447 0.05000007152557373
-0.7324494123458862 -0.6790080666542053 0.05000007152557373
-0.7324494123458862 -0.734679639339447 -0.05000007152557373
-0.7324494123458862 -0.6790080666542053 -0.05000007152557373
0.9755750298500061 -0.734679639339447 0.05000007152557373
0.9755750298500061 -0.6790080666542053 0.05000007152557373
0.8887506723403931 -0.5086498260498047 -0.05000007152557373
0.8443402051925659 -0.5086498260498047 -0.05000007152557373
0.8443402051925659 -0.663332462310791 0.05000007152557373
0.8887506723403931 -0.663332462310791 0.05000007152557373
0.8443402051925659 -0.5086498260498047 0.05000007152557373
0.8887506723403931 -0.5086498260498047 0.05000007152557373
-0.3347817659378052 -0.5086498260498047 0.05000007152557373
-0.3347817659378052 -0.5086498260498047 -0.05000007152557373
0.9586126804351807 -0.5086498260498047 0.05000007152557373
0.9586126804351807 -0.663332462310791 0.05000007152557373
0.9586126804351807 -0.663332462310791 -0.05000007152557373
0.9586126804351807 -0.5086498260498047 -0.05000007152557373
-0.3347817659378052 -0.663332462310791 -0.05000007152557373
-0.3580026030540466 -0.5086498260498047 -0.05000007152557373
-0.3580026030540466 -0.663332462310791 -0.05000007152557373
-0.3347817659378052 -0.663332462310791 0.05000007152557373
-0.3580026030540466 -0.5086498260498047 0.05000007152557373
-0.3580026030540466 -0.663332462310791 0.05000007152557373
-0.8834705352783203 -0.663332462310791 0.05000007152557373
-0.8834705352783203 -0.5086498260498047 0.05000007152557373
-0.3347817659378052 -0.4928736388683319 0.05000007152557373
-0.3347817659378052 -0.4928736388683319 -0.05000007152557373
-0.8834705352783203 -0.663332462310791 -0.05000007152557373
-0.8834705352783203 -0.5086498260498047 -0.05000007152557373
-0.3580026030540466 -0.4928736388683319 -0.05000007152557373
-0.3347817659378052 -0.3191240429878235 -0.05000007152557373
-0.3580026030540466 -0.3191240429878235 -0.05000007152557373
-0.3580026030540466 -0.4928736388683319 0.05000007152557373
-0.3347817659378052 -0.2991665899753571 -0.05000007152557373
-0.3580026030540466 -0.2991665899753571 -0.05000007152557373
-0.3347817659378052 -0.3191240429878235 0.05000007152557373
0.9759656190872192 -0.3191240429878235 -0.05000007152557373
0.9759656190872192 -0.3191240429878235 0.05000007152557373
-0.3580026030540466 -0.3191240429878235 0.05000007152557373
-0.9091925621032715 -0.4928736388683319 0.05000007152557373
-0.9091925621032715 -0.3191240429878235 0.05000007152557373
0.9759656190872192 -0.4928736388683319 -0.05000007152557373
0.9759656190872192 -0.4928736388683319 0.05000007152557373
-0.9091925621032715 -0.4928736388683319 -0.05000007152557373
-0.9091925621032715 -0.3191240429878235 -0.05000007152557373
-0.3347817659378052 -0.2991665899753571 0.05000007152557373
-0.3347817659378052 -0.07194733619689941 0.05000007152557373
0.9560307264328003 -0.07194733619689941 0.05000007152557373
0.9560307264328003 -0.2991665899753571 0.05000007152557373
-0.3580026030540466 -0.2991665899753571 0.05000007152557373
-0.3347817659378052 -0.07194733619689941 -0.05000007152557373
-0.3580026030540466 -0.07194733619689941 0.05000007152557373
-0.3580026030540466 -0.07194733619689941 -0.05000007152557373
-0.7050333023071289 -0.2991665899753571 0.05000007152557373
-0.7050333023071289 -0.07194733619689941 0.05000007152557373
-0.732799768447876 -0.2991665899753571 0.05000007152557373
-0.732799768447876 -0.07194733619689941 0.05000007152557373
-0.7050333023071289 -0.2991665899753571 -0.05000007152557373
-0.7050333023071289 -0.07194733619689941 -0.05000007152557373
-0.732799768447876 -0.2991665899753571 -0.05000007152557373
-0.732799768447876 -0.07194733619689941 -0.05000007152557373
-0.9147770404815674 -0.07194733619689941 -0.05000007152557373
-0.9147770404815674 -0.2991665899753571 -0.05000007152557373
-0.7050333023071289 -0.05313698947429657 -0.05000007152557373
-0.732799768447876 -0.05313698947429657 -0.05000007152557373
-0.9147770404815674 -0.2991665899753571 0.05000007152557373
-0.9147770404815674 -0.07194733619689941 0.05000007152557373
0.9560307264328003 -0.2991665899753571 -0.05000007152557373
0.9560307264328003 -0.07194733619689941 -0.05000007152557373
-0.7050333023071289 -0.05313698947429657 0.05000007152557373
0.7514470815658569 -0.05313698947429657 0.05000007152557373
0.7514470815658569 -0.05313698947429657 -0.05000007152557373
-0.732799768447876 -0.05313698947429657 0.05000007152557373
-0.7050333023071289 0.2714529037475586 -0.05000007152557373
-0.7050333023071289 0.2714529037475586 0.05000007152557373
-0.732799768447876 0.2714529037475586 0.05000007152557373
-0.732799768447876 0.2714529037475586 -0.05000007152557373
-0.9199388027191162 0.2714529037475586 0.05000007152557373
-0.9199388027191162 0.2714529037475586 -0.05000007152557373
-0.9199388027191162 -0.05313698947429657 0.05000007152557373
-0.9199388027191162 -0.05313698947429657 -0.05000007152557373
0.7514470815658569 0.2714529037475586 -0.05000007152557373
0.7723918557167053 -0.05313698947429657 -0.05000007152557373
0.7723918557167053 0.2714529037475586 -0.05000007152557373
0.7514470815658569 0.2714529037475586 0.05000007152557373
0.7723918557167053 0.2714529037475586 0.05000007152557373
0.9497636556625366 0.2714529037475586 -0.05000007152557373
0.9497636556625366 0.2714529037475586 0.05000007152557373
0.7723918557167053 0.2936415374279022 0.05000007152557373
0.7723918557167053 0.2936415374279022 -0.05000007152557373
0.7723918557167053 -0.05313698947429657 0.05000007152557373
0.9497636556625366 -0.05313698947429657 -0.05000007152557373
0.9497636556625366 -0.05313698947429657 0.05000007152557373
0.7514470815658569 0.2936415374279022 0.05000007152557373
0.7514470815658569 0.6376788020133972 0.05000007152557373
0.7723918557167053 0.6376788020133972 0.05000007152557373
0.7514470815658569 0.2936415374279022 -0.05000007152557373
0.7514470815658569 0.6376788020133972 -0.05000007152557373
0.7723918557167053 0.6376788020133972 -0.05000007152557373
0.9426499605178833 0.2936415374279022 -0.05000007152557373
0.9426499605178833 0.6376788020133972 -0.05000007152557373
-0.8065483570098877 0.2936415374279022 0.05000007152557373
-0.8065483570098877 0.6376788020133972 0.05000007152557373
-0.8065483570098877 0.2936415374279022 -0.05000007152557373
-0.8065483570098877 0.6376788020133972 -0.05000007152557373
-0.8065483570098877 0.7276404500007629 0.05000007152557373
0.7514470815658569 0.7276404500007629 0.05000007152557373
0.9426499605178833 0.2936415374279022 0.05000007152557373
0.9426499605178833 0.6376788020133972 0.05000007152557373
-0.8065483570098877 0.7484980821609497 0.05000007152557373
0.7514470815658569 0.7484980821609497 0.05000007152557373
0.7514470815658569 0.7276404500007629 -0.05000007152557373
-0.8065483570098877 0.7276404500007629 -0.05000007152557373
-0.8065483570098877 0.7484980821609497 -0.05000007152557373
0.7514470815658569 0.7484980821609497 -0.05000007152557373
0.7514470815658569 0.9468982219696045 -0.05000007152557373
-0.8065483570098877 0.9468982219696045 -0.05000007152557373
0.7514470815658569 0.9468982219696045 0.05000007152557373
-0.8065483570098877 0.9468982219696045 0.05000007152557373
-0.09985078455553818 -0.9046945648625926 -0.0009396222513522134
1.931704648553321e-18 -0.9351849390629697 0.5034091002192437
-0.2441498041152954 -0.7462345163027447 4.581563950060194e-18
-1.833648575022695e-18 -0.9351849390629695 -0.5034091002192437
0.928075287744018 -0.6714530960242808 -4.310763480378584e-19
0.8593114627783529 0.2824715447163881 0
0.748985586391272 0.2822987101608084 -0.00103548976509836
0.6315656900405884 -0.8781349658966063 6.551062299114869e-18
0.9656304365693018 -0.5809681994485489 -0.0627900689938167
-0.8919775383374897 -0.5098253652985992 -0.01492338588927074
0.9496415127079272 -0.06229244112890215 -0.0006031769194072398

CELLS 992 4620
3 0 1 2
3 9 1 0
3 0 2 3
3 10 0 3
3 9 0 10
3 8 2 1
3 8 1 9
3 12 3 2
3 4 2 8
3 4 12 2
3 10 3 11
3 13 11 3
3 12 13 3
3 4 5 6
3 5 4 8
3 4 6 7
3 12 4 7
3 5 14 6
3 5 8 11
3 13 5 11
3 5 13 14
3 7 6 18
3 6 14 33
3 18 6 22
3 6 33 22
3 12 7 15
3 15 7 24
3 7 18 19
3 7 19 21
3 7 21 24
3 9 11 8
3 9 10 11
3 13 12 15
3 13 15 14
3 14 15 16
3 14 16 17
3 14 17 32
3 14 32 33
3 16 15 27
3 15 24 27
3 18 17 16
3 18 16 19
3 19 16 20
3 16 27 20
3 17 18 23
3 17 23 32
3 18 22 23
3 19 20 21
3 21 20 29
3 20 27 28
3 20 28 29
3 24 21 25
3 21 29 25
3 23 22 30
3 22 39 30
3 22 33 39
3 23 30 31
3 23 31 38
3 32 23 45
3 23 38 45
3 24 25 26
3 27 24 26
3 28 26 25
3 28 25 29
3 27 26 28
3 31 30 40
3 30 39 41
3 30 41 40
3 34 31 35
3 31 34 37
3 31 40 35
3 31 37 38
3 33 32 34
3 34 32 42
3 32 45 42
3 33 34 39
3 34 35 36
3 39 34 36
3 34 42 37
3 40 36 35
3 39 36 41
3 40 41 36
3 38 37 56
3 37 42 43
3 37 43 44
3 37 44 57
3 37 57 56
3 45 38 47
3 47 38 50
3 38 56 50
3 43 42 52
3 42 45 54
3 42 54 52
3 44 43 60
3 43 46 49
3 46 43 53
3 43 49 60
3 43 52 53
3 44 47 51
3 47 44 61
3 44 51 57
3 44 60 61
3 45 47 46
3 45 46 55
3 45 55 54
3 46 47 48
3 46 48 49
3 46 53 55
3 47 61 48
3 47 50 51
3 49 48 58
3 58 48 68
3 48 61 67
3 48 67 68
3 49 58 59
3 49 59 65
3 60 49 70
3 49 65 70
3 50 57 51
3 50 56 57
3 52 55 53
3 52 54 55
3 62 59 58
3 62 58 63
3 63 58 69
3 58 68 69
3 59 62 64
3 59 64 65
3 61 60 62
3 62 60 73
3 60 70 73
3 61 62 63
3 61 63 66
3 61 66 67
3 62 73 64
3 63 69 66
3 65 64 78
3 64 73 75
3 64 75 74
3 64 74 85
3 64 85 78
3 70 65 71
3 71 65 79
3 65 78 79
3 68 67 66
3 68 66 69
3 70 71 72
3 73 70 72
3 72 71 81
3 71 74 77
3 74 71 82
3 71 77 81
3 71 79 82
3 73 72 75
3 75 72 80
3 72 81 80
3 74 75 76
3 74 76 77
3 74 82 85
3 75 80 76
3 76 81 77
3 76 80 81
3 79 78 95
3 78 85 91
3 78 88 90
3 78 91 88
3 78 90 95
3 82 79 83
3 83 79 94
3 79 95 94
3 82 83 84
3 82 84 97
3 85 82 96
3 82 97 96
3 84 83 86
3 83 98 86
3 88 83 89
3 83 88 98
3 83 94 89
3 84 86 87
3 91 84 87
3 84 91 93
3 84 93 97
3 91 85 92
3 85 96 92
3 87 86 103
3 86 98 101
3 86 101 120
3 103 86 120
3 91 87 102
3 102 87 110
3 87 103 105
3 87 105 111
3 87 111 110
3 88 89 90
3 88 91 102
3 88 102 98
3 94 90 89
3 94 95 90
3 91 92 93
3 92 97 93
3 92 96 97
3 98 99 100
3 98 104 99
3 98 100 101
3 98 102 104
3 99 121 100
3 103 99 104
3 99 103 121
3 120 101 100
3 120 100 121
3 104 102 106
3 102 110 106
3 103 104 105
3 103 120 121
3 105 104 107
3 104 106 107
3 105 107 111
3 107 106 108
3 106 112 108
3 106 110 112
3 107 108 109
3 107 109 125
3 111 107 122
3 107 125 122
3 109 108 118
3 108 112 115
3 108 115 118
3 109 113 117
3 113 109 119
3 109 117 125
3 109 118 119
3 110 111 113
3 110 113 112
3 113 111 116
3 111 122 116
3 112 113 114
3 112 114 115
3 113 119 114
3 113 116 117
3 118 115 114
3 118 114 119
3 117 116 126
3 116 122 123
3 116 123 124
3 126 116 124
3 125 117 133
3 117 126 129
3 117 129 131
3 117 131 133
3 122 137 123
3 122 125 128
3 122 128 127
3 122 127 137
3 124 123 143
3 123 137 138
3 123 138 143
3 126 124 134
3 134 124 135
3 124 143 135
3 128 125 132
3 125 133 132
3 126 127 128
3 127 126 134
3 126 128 129
3 127 134 137
3 129 128 130
3 128 132 130
3 129 130 131
3 132 131 130
3 132 133 131
3 134 135 136
3 134 136 142
3 137 134 149
3 134 142 149
3 136 135 144
3 135 143 145
3 135 145 144
3 138 136 139
3 136 138 141
3 136 144 139
3 136 141 142
3 138 137 146
3 137 149 146
3 138 139 140
3 143 138 140
3 138 146 141
3 144 140 139
3 143 140 145
3 144 145 140
3 142 141 160
3 141 146 147
3 141 147 148
3 141 148 161
3 141 161 160
3 149 142 151
3 151 142 152
3 142 160 152
3 147 146 154
3 146 149 156
3 146 156 154
3 147 151 148
3 147 150 151
3 150 147 159
3 147 154 155
3 147 155 158
3 147 158 159
3 148 151 153
3 148 153 161
3 149 151 150
3 149 150 157
3 149 157 156
3 157 150 164
3 150 159 164
3 151 152 153
3 152 161 153
3 152 160 161
3 154 157 155
3 154 156 157
3 155 157 165
3 155 165 158
3 157 164 165
3 159 158 162
3 158 166 162
3 158 165 166
3 159 162 163
3 164 159 163
3 163 162 171
3 162 166 169
3 162 169 171
3 164 163 167
3 167 163 170
3 163 171 170
3 165 164 167
3 165 167 166
3 166 167 168
3 166 168 169
3 167 170 168
3 168 171 169
3 168 170 171
4 8 114 133 115
4 2 118 132 119
4 9 166 169 131
4 87 105 8 111
4 110 87 8 111
4 106 107 2 104
4 102 106 2 104
4 107 108 2 109
4 110 113 8 112
4 128 132 1 130
4 129 131 9 117
4 117 131 9 133
4 132 128 1 125
4 143 140 0 145
4 10 139 136 144
4 140 143 0 138
4 136 10 144 135
4 114 8 112 115
4 2 118 119 109
4 113 8 112 114
4 109 2 118 108
4 140 144 100 145
4 93 106 108 2
4 123 121 143 100
4 77 82 81 96
4 77 82 96 85
4 96 85 92 77
4 97 110 8 112
4 113 110 8 111
4 108 107 2 106
4 92 85 2 77
4 57 94 51 180
4 82 96 8 81
4 93 115 92 118
4 121 123 143 124
4 104 98 2 102
4 8 103 105 87
4 140 0 161 160
4 144 100 145 182
4 139 10 121 144
4 100 145 0 140
4 155 158 131 130
4 116 8 105 111
4 107 122 2 104
4 84 87 8 110
4 91 106 2 102
4 140 138 0 160
4 131 165 166 158
4 158 166 131 162
4 113 116 8 117
4 116 113 8 111
4 125 122 2 107
4 141 0 138 160
4 2 93 118 108
4 12 3 13 173
4 4 5 8 175
4 97 112 8 115
4 9 149 126 10
4 7 24 4 172
4 91 2 88 102
4 97 115 96 92
4 115 93 92 97
4 84 86 8 87
4 126 9 117 129
4 122 1 128 125
4 134 135 10 136
4 143 123 0 138
4 5 6 11 175
4 116 124 10 126
4 126 124 10 134
4 123 122 0 137
4 15 2 12 173
4 131 129 9 156
4 130 128 154 1
4 103 8 86 87
4 98 104 2 99
4 68 57 51 180
4 24 7 15 172
4 27 24 15 172
4 137 134 127 178
4 127 134 126 178
4 83 101 88 89
4 89 101 88 90
4 115 8 97 96
4 3 63 66 61
4 67 3 66 61
4 48 11 58 68
4 126 146 127 178
4 158 130 1 162
4 93 92 2 118
4 124 121 11 135
4 100 123 3 143
4 165 166 9 131
4 78 85 2 91
4 8 83 84 82
4 103 9 8 105
4 139 138 140 177
4 139 136 138 177
4 149 146 126 178
4 51 47 11 50
4 37 57 3 56
4 38 50 11 47
4 44 57 3 37
4 36 37 3 56
4 10 149 126 134
4 97 82 8 84
4 96 82 8 97
4 92 91 2 85
4 93 91 2 92
4 50 38 11 35
4 161 141 0 148
4 142 152 10 151
4 141 161 0 160
4 153 10 152 151
4 48 11 68 47
4 102 2 88 98
4 51 11 68 180
4 44 3 67 61
4 27 4 24 172
4 85 64 2 74
4 57 44 3 67
4 37 36 3 34
4 95 62 63 3
4 31 35 11 38
4 103 8 11 86
4 98 2 3 99
4 47 51 11 68
4 11 58 94 59
4 1 2 132 125
4 117 9 8 133
4 127 146 137 178
4 99 100 3 98
4 121 103 11 120
4 103 120 86 11
4 98 100 3 101
4 40 31 11 30
4 31 40 11 35
4 39 36 3 41
4 36 39 3 34
4 149 126 134 178
4 86 84 8 83
4 71 79 8 82
4 155 165 131 158
4 116 10 9 126
4 144 145 135 182
4 135 145 143 182
4 2 3 12 173
4 5 11 8 175
4 165 155 131 157
4 3 36 56 41
4 77 85 2 74
4 8 81 71 82
4 2 75 74 64
4 70 71 8 72
4 142 134 10 136
4 95 57 68 180
4 99 0 3 123
4 0 3 2 99
4 9 11 103 8
4 9 11 10 103
4 40 56 36 41
4 56 35 40 36
4 103 11 10 124
4 36 37 56 35
4 138 146 0 141
4 127 1 128 122
4 117 116 9 126
4 135 134 10 124
4 137 0 123 138
4 86 8 11 83
4 88 2 3 98
4 105 9 8 116
4 35 37 56 38
4 72 81 71 8
4 2 74 76 77
4 75 2 74 76
4 80 72 8 81
4 95 68 69 180
4 150 9 149 157
4 147 154 1 155
4 154 147 1 146
4 9 149 157 156
4 98 101 3 88
4 82 79 8 83
4 88 78 2 91
4 38 56 35 50
4 121 100 144 182
4 59 79 11 65
4 62 64 3 78
4 63 95 3 66
4 78 2 3 88
4 79 11 8 83
4 79 71 8 65
4 3 101 90 88
4 64 85 2 78
4 158 1 130 155
4 62 73 3 64
4 70 49 11 65
4 60 73 3 62
4 49 11 65 59
4 2 1 122 125
4 158 147 1 155
4 9 150 164 157
4 147 158 1 159
4 165 157 9 164
4 14 13 3 173
4 116 9 8 117
4 83 94 11 89
4 79 11 83 94
4 95 78 3 90
4 88 90 3 78
4 7 4 8 175
4 165 9 157 131
4 162 159 1 158
4 167 165 9 164
4 159 162 1 163
4 165 167 9 166
4 135 10 11 124
4 71 70 8 65
4 73 2 64 75
4 11 65 79 8
4 64 3 78 2
4 123 0 3 143
4 37 35 34 31
4 166 168 9 169
4 162 171 1 163
4 166 168 167 9
4 55 45 11 46
4 54 45 11 55
4 3 43 52 53
4 42 52 3 43
4 3 73 2 64
4 70 11 8 65
4 81 77 96 181
4 11 31 38 23
4 18 6 11 22
4 14 32 3 33
4 32 14 3 17
4 22 11 18 23
4 35 37 38 31
4 58 95 62 63
4 3 63 61 62
4 11 49 48 58
4 7 21 8 24
4 15 2 16 27
4 19 21 8 7
4 20 16 2 27
4 23 30 11 31
4 39 3 34 33
4 36 37 35 34
4 20 28 2 29
4 24 25 8 26
4 67 95 3 57
4 150 9 10 149
4 1 146 147 0
4 95 94 57 180
4 151 149 10 142
4 141 147 0 148
4 3 43 73 60
4 49 70 11 46
4 66 95 3 67
4 44 60 3 61
4 146 0 137 138
4 134 142 10 149
4 83 98 101 86
4 98 83 101 88
4 121 120 11 89
4 101 100 3 90
4 21 80 8 25
4 77 71 81 82
4 77 74 71 82
4 76 20 2 29
4 150 9 164 10
4 78 65 59 64
4 62 78 59 64
4 147 1 0 159
4 77 74 82 85
4 167 9 10 164
4 52 3 53 2
4 54 11 8 55
4 159 1 0 163
4 168 9 10 167
4 65 78 59 79
4 45 18 11 23
4 42 3 17 32
4 24 7 4 8
4 134 137 149 178
4 48 46 11 47
4 43 70 60 49
4 73 43 70 60
4 38 47 11 45
4 3 44 37 43
4 121 135 143 182
4 137 146 149 178
4 34 42 3 37
4 32 34 3 33
4 30 23 11 22
4 28 20 2 27
4 25 24 8 21
4 129 126 9 156
4 128 154 1 127
4 11 58 59 49
4 60 3 61 62
4 46 70 43 49
4 110 106 91 102
4 91 87 110 102
4 148 159 0 161
4 151 153 10 164
4 149 151 10 150
4 147 141 0 146
4 1 154 130 155
4 131 9 157 156
4 45 23 17 18
4 32 45 23 17
4 81 76 77 181
4 42 34 3 32
4 59 95 62 58
4 45 11 38 23
4 8 80 21 55
4 60 44 3 43
4 87 91 110 84
4 95 59 94 58
4 46 48 11 49
4 117 109 119 113
4 114 113 117 119
4 159 0 147 148
4 164 10 151 150
4 133 114 117 119
4 68 48 47 176
4 42 3 37 43
4 45 47 11 46
4 125 133 117 119
4 125 133 119 132
4 109 117 119 125
4 140 138 160 177
4 32 45 17 42
4 67 44 61 176
4 167 10 153 164
4 153 168 10 167
4 118 93 115 108
4 93 112 115 108
4 54 8 21 55
4 154 130 129 128
4 154 131 129 130
4 121 143 100 182
4 57 67 95 68
4 122 107 105 104
4 111 122 107 105
4 68 66 67 95
4 68 66 95 69
4 112 93 115 97
4 131 154 129 156
4 131 155 130 154
4 126 128 154 129
4 111 122 105 116
4 121 144 135 182
4 145 100 143 182
4 69 63 95 58
4 63 69 95 66
4 148 153 159 161
4 153 148 159 151
4 170 167 153 163
4 167 170 153 168
4 12 15 7 172
4 131 155 154 157
4 157 131 156 154
4 15 13 14 173
4 4 7 6 175
4 128 126 154 127
4 154 126 129 156
4 12 7 4 172
4 100 120 89 101
4 120 100 89 121
4 89 100 101 90
4 6 5 4 175
4 15 12 13 173
4 29 21 76 20
4 151 159 153 164
4 94 95 69 180
4 95 94 69 58
4 80 53 76 21
4 164 163 159 153
4 164 163 153 167
4 80 53 21 55
4 147 159 148 151
4 55 52 21 54
4 55 52 53 21
4 164 151 159 150
4 147 159 151 150
4 25 133 115 8
4 26 27 4 24
4 4 8 26 24
4 47 48 61 176
4 20 16 52 2
4 17 18 16 174
4 73 72 53 75
4 19 16 18 174
4 152 161 140 153
4 90 140 89 100
4 91 93 106 110
4 44 47 61 176
4 113 117 8 114
4 152 140 160 177
4 28 8 2 29
4 21 19 8 54
4 27 26 4 28
4 132 29 118 2
4 55 46 11 70
4 72 80 8 55
4 11 55 70 8
4 72 53 80 55
4 116 10 103 9
4 55 70 8 72
4 169 162 131 166
4 118 114 133 119
4 132 29 133 118
4 119 132 2 125
4 114 117 8 133
4 132 29 8 133
4 28 25 8 29
4 29 132 8 2
4 25 8 115 96
4 59 78 95 79
4 132 9 8 1
4 154 146 1 127
4 2 8 1 132
4 52 42 3 17
4 131 130 158 162
4 149 146 156 126
4 103 104 122 105
4 170 9 168 171
4 30 40 41 179
4 70 46 53 55
4 122 103 116 123
4 73 53 2 75
4 8 28 4 26
4 110 93 106 112
4 132 118 133 119
4 29 118 2 92
4 112 93 106 108
4 132 9 131 133
4 25 133 8 29
4 122 103 105 116
4 84 93 91 110
4 154 126 146 127
4 125 2 119 109
4 107 2 125 109
4 104 103 122 99
4 3 43 53 73
4 91 93 2 106
4 53 3 73 2
4 72 73 53 70
4 170 9 10 168
4 0 90 3 100
4 90 94 3 95
4 94 3 95 57
4 61 48 67 176
4 152 139 140 177
4 46 70 53 43
4 94 11 51 180
4 103 121 11 124
4 10 170 168 153
4 161 152 140 160
4 149 9 126 156
4 139 89 121 10
4 124 116 10 103
4 123 121 100 99
4 100 99 3 123
4 94 90 3 89
4 89 3 94 11
4 10 89 121 11
4 11 3 10 89
4 73 43 53 70
4 103 123 121 124
4 123 103 121 99
4 123 116 124 103
4 11 57 51 50
4 57 94 11 51
4 28 8 4 2
4 79 59 11 94
4 59 95 94 79
4 94 3 57 11
4 139 89 10 140
4 90 140 100 0
4 72 53 55 70
4 78 62 59 95
4 110 97 93 112
4 103 116 9 105
4 52 17 16 174
4 9 168 171 169
4 48 68 67 176
4 25 28 8 26
4 53 75 80 76
4 124 121 135 143
4 114 118 133 115
4 97 84 8 110
4 84 97 93 110
4 123 122 99 0
4 78 95 3 62
4 122 103 123 99
4 154 126 156 146
4 54 11 19 8
4 132 9 133 8
4 53 72 80 75
4 41 39 30 179
4 9 170 10 0
4 2 75 53 76
4 174 54 21 52
4 174 21 54 19
4 20 174 21 52
4 20 21 174 19
4 16 174 20 52
4 16 20 174 19
4 89 140 121 100
4 89 121 140 139
4 144 121 140 100
4 144 140 121 139
4 152 10 140 139
4 152 140 10 153
4 142 160 177 152
4 16 173 15 14
4 15 173 16 2
4 6 18 175 7
4 6 175 18 11
4 8 175 19 7
4 8 19 175 11
4 175 18 19 7
4 175 19 18 11
4 122 1 137 127
4 122 137 1 0
4 146 137 1 127
4 146 1 137 0
4 121 135 10 11
4 10 135 121 144
4 143 100 0 3
4 143 0 100 145
4 11 68 69 58
4 69 68 11 180
4 69 94 11 58
4 11 94 69 180
4 11 89 86 83
4 11 86 89 120
4 101 86 89 83
4 101 89 86 120
4 122 0 104 99
4 2 104 0 99
4 177 142 141 160
4 141 142 177 136
4 141 138 177 160
4 177 138 141 136
4 22 33 179 39
4 30 22 179 39
4 25 8 81 80
4 81 8 25 96
4 9 171 0 1
4 9 0 171 170
4 163 0 171 1
4 163 171 0 170
4 47 51 176 44
4 176 51 47 68
4 57 67 176 44
4 176 67 57 68
4 51 57 176 44
4 176 57 51 68
4 6 179 22 33
4 179 13 14 5
4 6 14 179 33
4 179 14 6 5
4 21 76 52 53
4 21 52 76 20
4 2 52 76 53
4 2 76 52 20
4 29 77 2 76
4 29 2 77 92
4 181 77 29 76
4 3 90 10 89
4 3 10 90 0
4 140 10 90 89
4 140 90 10 0
4 5 11 179 13
4 179 11 3 13
4 27 4 2 28
4 17 174 45 18
4 173 3 16 2
4 52 3 16 17
4 52 16 3 2
4 133 115 29 25
4 133 29 115 118
4 92 115 29 118
4 39 3 179 41
4 115 96 29 25
4 115 29 96 92
4 140 10 161 0
4 140 161 10 153
4 161 10 170 0
4 161 170 10 153
4 163 161 170 0
4 163 170 161 153
4 159 161 163 0
4 159 163 161 153
4 30 179 11 40
4 57 11 56 50
4 57 56 11 3
4 179 33 3 39
4 45 174 42 54
4 45 42 174 17
4 52 42 174 54
4 52 174 42 17
4 22 179 11 30
4 179 41 11 40
4 179 11 41 3
4 56 11 41 40
4 56 41 11 3
4 132 130 9 1
4 9 130 132 131
4 130 171 9 1
4 130 162 171 1
4 169 162 130 131
4 130 162 169 171
4 130 9 169 131
4 169 9 130 171
4 172 4 2 27
4 2 4 172 12
4 2 15 172 27
4 172 15 2 12
4 35 11 56 40
4 35 56 11 50
4 77 96 29 92
4 77 29 96 181
4 152 177 136 139
4 136 177 152 142
4 136 10 152 139
4 152 10 136 142
4 3 14 16 17
4 16 14 3 173
4 122 0 2 104
4 2 0 122 1
4 81 96 29 181
4 29 96 81 25
4 29 76 81 181
4 6 179 11 22
4 6 11 179 5
4 14 179 3 13
4 3 179 14 33
4 21 80 29 76
4 21 29 80 25
4 81 29 80 76
4 81 80 29 25
4 18 174 54 19
4 54 174 18 45
4 54 11 18 19
4 18 11 54 45

CELL_TYPES 992
5
5
5
5
5
5
5
5
5
5
5
5
5
5
5
5
5
5
5
5
5
5
5
5
5
5
5
5
5
5
5
5
5
5
5
5
5
5
5
5
5
5
5
5
5
5
5
5
5
5
5
5
5
5
5
5
5
5
5
5
5
5
5
5
5
5
5
5
5
5
5
5
5
5
5
5
5
5
5
5
5
5
5
5
5
5
5
5
5
5
5
5
5
5
5
5
5
5
5
5
5
5
5
5
5
5
5
5
5
5
5
5
5
5
5
5
5
5
5
5
5
5
5
5
5
5
5
5
5
5
5
5
5
5
5
5
5
5
5
5
5
5
5
5
5
5
5
5
5
5
5
5
5
5
5
5
5
5
5
5
5
5
5
5
5
5
5
5
5
5
5
5
5
5
5
5
5
5
5
5
5
5
5
5
5
5
5
5
5
5
5
5
5
5
5
5
5
5
5
5
5
5
5
5
5
5
5
5
5
5
5
5
5
5
5
5
5
5
5
5
5
5
5
5
5
5
5
5
5
5
5
5
5
5
5
5
5
5
5
5
5
5
5
5
5
5
5
5
5
5
5
5
5
5
5
5
5
5
5
5
5
5
5
5
5
5
5
5
5
5
5
5
5
5
5
5
5
5
5
5
5
5
5
5
5
5
5
5
5
5
5
5
5
5
5
5
5
5
5
5
5
5
5
5
5
5
5
5
5
5
5
5
5
5
5
5
5
5
5
5
5
5
5
5
5
5
5
5
5
5
5
5
5
5
5
5
5
5
5
5
10
10
10
10
10
10
10
10
10
10
10
10
10
10
10
10
10
10
10
10
10
10
10
10
10
10
10
10
10
10
10
10
10
10
10
10
10
10
10
10
10
10
10
10
10
10
10
10
10
10
10
10
10
10
10
10
10
10
10
10
10
10
10
10
10
10
10
10
10
10
10
10
10
10
10
10
10
10
10
10
10
10
10
10
10
10
10
10
10
10
10
10
10
10
10
10
10
10
10
10
10
10
10
10
10
10
10
10
10
10
10
10
10
10
10
10
10
10
10
10
10
10
10
10
10
10
10
10
10
10
10
10
10
10
10
10
10
10
10
10
10
10
10
10
10
10
10
10
10
10
10
10
10
10
10
10
10
10
10
10
10
10
10
10
10
10
10
10
10
10
10
10
10
10
10
10
10
10
10
10
10
10
10
10
10
10
10
10
10
10
10
10
10
10
10
10
10
10
10
10
10
10
10
10
10
10
10
10
10
10
10
10
10
10
10
10
10
10
10
10
10
10
10
10
10
10
10
10
10
10
10
10
10
10
10
10
10
10
10
10
10
10
10
10
10
10
10
10
10
10
10
10
10
10
10
10
10
10
10
10
10
10
10
10
10
10
10
10
10
10
10
10
10
10
10
10
10
10
10
10
10
10
10
10
10
10
10
10
10
10
10
10
10
10
10
10
10
10
10
10
10
10
10
10
10
10
10
10
10
10
10
10
10
10
10
10
10
10
10
10
10
10
10
10
10
10
10
10
10
10
10
10
10
10
10
10
10
10
10
10
10
10
10
10
10
10
10
10
10
10
10
10
10
10
10
10
10
10
10
10
10
10
10
10
10
10
10
10
10
10
10
10
10
10
10
10
10
10
10
10
10
10
10
10
10
10
10
10
10
10
10
10
10
10
10
10
10
10
10
10
10
10
10
10
10
10
10
10
10
10
10
10
10
10
10
10
10
10
10
10
10
10
10
10
10
10
10
10
10
10
10
10
10
10
10
10
10
10
10
10
10
10
10
10
10
10
10
10
10
10
10
10
10
10
10
10
10
10
10
10
10
10
10
10
10
10
10
10
10
10
10
10
10
10
10
10
10
10
10
10
10
10
10
10
10
10
10
10
10
10
10
10
10
10
10
10
10
10
10
10
10
10
10
10
10
10
10
10
10
10
10
10
10
10
10
10
10
10
10
10
10
10
10
10
10
10
10
10
10
10
10
10
10
10
10
10
10
10
10
10
10
10
10
10
10
10
10
10
10
10
10
10
10
10
10
10
10
10
10
10
10
10
10
10
10
10
10
10
10
10
10
10
10
10
10
10
10
10
10
10
10
10
10
10
10
10
10
10
10
10
10
10
10
10
10
10
10
10
10
10
10
10
10
10
10
10
10
10
10
10
10
10
10
10
10
10
10
10
10
10
10
10
10
10
10
10
10
10
10
10
10
10
10
10
10
10
10
10
10
10
10
10
10
10
10
10
10
10
10
10
10
10
